<?xml version="1.0" encoding="UTF-8"?>
<svg width="34px" height="34px" viewBox="0 0 34 34" version="1.1" xmlns="http://www.w3.org/2000/svg" xmlns:xlink="http://www.w3.org/1999/xlink">
    <title>编组 8</title>
    <defs>
        <linearGradient x1="100%" y1="100%" x2="0%" y2="-18.2553741%" id="linearGradient-1">
            <stop stop-color="#1C7BFF" offset="0%"></stop>
            <stop stop-color="#9D6FFF" offset="100%"></stop>
        </linearGradient>
    </defs>
    <g id="0817代币详情页" stroke="none" stroke-width="1" fill="none" fill-rule="evenodd">
        <g id="代币首页" transform="translate(-38.000000, -240.000000)">
            <g id="编组-8" transform="translate(38.000000, 240.000000)">
                <rect id="矩形备份-5" fill="#FFFFFF" x="0" y="0" width="34" height="34" rx="8"></rect>
                <g id="二维码" transform="translate(5.000000, 5.000000)" fill-rule="nonzero">
                    <rect id="矩形" fill="#000000" opacity="0" x="0" y="0" width="24" height="24"></rect>
                    <path d="M6.45116327,0.385435359 L2.23570444,0.385435359 C1.00883864,0.385435359 0.0142771406,1.38002046 0.0142771406,2.60686266 L0.0142771406,6.82232149 C0.0142771406,8.04914009 1.00886224,9.04374879 2.23570444,9.04374879 L6.45116327,9.04374879 C7.67800547,9.04374879 8.67259057,8.04914009 8.67259057,6.82232149 L8.67259057,2.60686266 C8.67259057,1.37999688 7.67800545,0.385435359 6.45116327,0.385435359 Z M6.31122377,6.12706057 C6.31122377,6.43377112 6.0625893,6.6824292 5.75587875,6.6824292 L2.93098894,6.6824292 C2.62425478,6.6824292 2.37562031,6.43377112 2.37562031,6.12706057 L2.37562031,3.30217078 C2.37562031,2.99538945 2.62427838,2.74680216 2.93098894,2.74680216 L5.75587875,2.74680216 C6.06261291,2.74680216 6.31122377,2.99538945 6.31122377,3.30217078 L6.31122377,6.12706057 Z M21.4063761,0.385435359 L17.1909645,0.385435359 C15.9640987,0.385435359 14.9695608,1.38002046 14.9695608,2.60686266 L14.9695608,6.82232149 C14.9695608,8.04914009 15.9640987,9.04374879 17.1909645,9.04374879 L21.4063761,9.04374879 C22.6332419,9.04374879 23.6278034,8.04914009 23.6278034,6.82232149 L23.6278034,2.60686266 C23.6278034,1.37999688 22.6332655,0.385435359 21.4063761,0.385435359 Z M21.266531,6.12706057 C21.266531,6.43377112 21.017873,6.6824292 20.7111624,6.6824292 L17.8862726,6.6824292 C17.5795385,6.6824292 17.330904,6.43377112 17.330904,6.12706057 L17.330904,3.30217078 C17.330904,2.99538945 17.5795385,2.74680216 17.8862726,2.74680216 L20.7111388,2.74680216 C21.0178494,2.74680216 21.266531,2.99538945 21.266531,3.30217078 L21.266531,6.12706057 L21.266531,6.12706057 Z M6.45116327,15.340719 L2.23570444,15.340719 C1.00883864,15.340719 0.0142771406,16.3352805 0.0142771406,17.5621463 L0.0142771406,21.7776052 C0.0142771406,23.0044237 1.00886224,23.9990325 2.23570444,23.9990325 L6.45116327,23.9990325 C7.67800547,23.9990325 8.67259057,23.0044474 8.67259057,21.7776052 L8.67259057,17.5621227 C8.67259057,16.3352569 7.67800545,15.340719 6.45116327,15.340719 Z M6.31122377,21.0822971 C6.31122377,21.3890076 6.0625893,21.6376421 5.75587875,21.6376421 L2.93098894,21.6376421 C2.62425478,21.6376421 2.37562031,21.3890076 2.37562031,21.0822971 L2.37562031,18.2574308 C2.37562031,17.9506731 2.62427838,17.7020622 2.93098894,17.7020622 L5.75587875,17.7020622 C6.06261291,17.7020622 6.31122377,17.9506731 6.31122377,18.2574308 L6.31122377,21.0822971 Z M21.4063761,15.340719 L17.1909645,15.340719 C15.9640987,15.340719 14.9695608,16.3352805 14.9695608,17.5621463 L14.9695608,21.7776052 C14.9695608,23.0044237 15.9640987,23.9990325 17.1909645,23.9990325 L21.4063761,23.9990325 C22.6332419,23.9990325 23.6278034,23.0044474 23.6278034,21.7776052 L23.6278034,17.5621227 C23.6278034,16.3352569 22.6332655,15.340719 21.4063761,15.340719 Z M21.266531,21.0822971 C21.266531,21.3890076 21.017873,21.6376421 20.7111624,21.6376421 L17.8862726,21.6376421 C17.5795385,21.6376421 17.330904,21.3890076 17.330904,21.0822971 L17.330904,18.2574308 C17.330904,17.9506731 17.5795385,17.7020622 17.8862726,17.7020622 L20.7111388,17.7020622 C21.0178494,17.7020622 21.266531,17.9506731 21.266531,18.2574308 L21.266531,21.0822971 L21.266531,21.0822971 Z M17.330904,10.6180091 L13.3953241,10.6180091 L13.3953241,1.95964842 C13.3953241,1.09020649 12.6904822,0.385435359 11.8210403,0.385435359 C10.9516219,0.385435359 10.2468272,1.09023009 10.2468272,1.95964842 L10.2468272,10.6179855 L1.58856098,10.6179855 C0.719142656,10.6179855 0.0143243203,11.3227802 0.0143243203,12.1921985 C0.0143243203,13.0615932 0.719142656,13.7664824 1.58856098,13.7664824 L17.330904,13.7664824 C18.2003223,13.7664824 18.905117,13.0615932 18.905117,12.1921985 C18.905117,11.3227802 18.2003223,10.6180091 17.330904,10.6180091 Z M13.3953241,22.4247722 C13.3953241,23.2941905 12.6904822,23.9990089 11.8210403,23.9990089 L11.8210403,23.9990089 C10.9516219,23.9990089 10.2468272,23.2941905 10.2468272,22.4247722 L10.2468272,16.9150029 C10.2468272,16.0455374 10.9516455,15.340719 11.8210403,15.340719 L11.8210403,15.340719 C12.6904822,15.340719 13.3953241,16.0455374 13.3953241,16.9150029 L13.3953241,22.4247722 Z M23.6278034,12.1922221 C23.6278034,13.0616168 22.9230559,13.766506 22.053614,13.766506 L22.053614,13.766506 C21.1841249,13.766506 20.4793773,13.0616168 20.4793773,12.1922221 L20.4793773,12.1922221 C20.4793773,11.3227802 21.1841248,10.6180091 22.053614,10.6180091 L22.053614,10.6180091 C22.9230559,10.6180091 23.6278034,11.3227802 23.6278034,12.1922221 L23.6278034,12.1922221 Z" id="形状" fill="url(#linearGradient-1)"></path>
                </g>
            </g>
        </g>
    </g>
</svg>