<?xml version="1.0" encoding="UTF-8"?>
<svg width="20px" height="20px" viewBox="0 0 20 20" version="1.1" xmlns="http://www.w3.org/2000/svg" xmlns:xlink="http://www.w3.org/1999/xlink">
    <title>编组 8</title>
    <g id="0823交易成功弹窗" stroke="none" stroke-width="1" fill="none" fill-rule="evenodd">
        <g id="交易记录" transform="translate(-315.000000, -684.000000)">
            <g id="编组-11" transform="translate(40.000000, 661.000000)">
                <g id="编组-8" transform="translate(275.000000, 23.000000)">
                    <g id="编组-23备份" transform="translate(0.000000, 1.000000)">
                        <rect id="矩形" x="0" y="0.952380952" width="20" height="19.047619"></rect>
                        <g id="钢笔" transform="translate(1.935484, 0.000000)">
                            <rect id="矩形" fill="#000000" fill-rule="nonzero" opacity="0" x="0" y="9.41944077" width="12.7558315" height="10.4476334"></rect>
                            <path d="M5.34469341,10.6780706 L6.32689244,11.340159 L6.3524041,11.3583816 L6.37791577,11.3826784 L6.40342743,11.4009011 L6.42893909,11.4191237 L6.45445076,11.4373463 L6.47996242,11.4555689 L6.50547408,11.4737915 L6.53098574,11.4920141 L6.55649741,11.5102368 L6.58200907,11.5284594 L6.60752073,11.546682 L6.6330324,11.5649046 L6.65854406,11.5831272 L6.68405572,11.6013498 L6.70956739,11.6195725 L6.73507905,11.6377951 L6.76059071,11.6560177 L6.78610238,11.6742403 L6.81161404,11.6924629 L6.8371257,11.7106855 L6.86263736,11.7289082 L6.88814903,11.7471308 L6.91366069,11.7653534 L6.93917235,11.783576 L6.96468402,11.8017986 L6.99019568,11.8200212 L7.47491728,12.1480283 L7.50042894,12.166251 L7.5259406,12.1844736 L7.55145227,12.2026962 L7.57696393,12.2209188 L7.60247559,12.2391414 L7.62798726,12.257364 L7.65349892,12.2755867 L7.67901058,12.2938093 L7.70452225,12.3120319 L7.73003391,12.3302545 L7.75554557,12.3484771 L7.78105723,12.3666997 L7.8065689,12.3849224 L7.83208056,12.403145 L7.85759222,12.4213676 L7.88310389,12.4395902 L7.90861555,12.4578128 L7.93412721,12.4760354 L7.95963888,12.4942581 L7.98515054,12.5124807 L8.0106622,12.5307033 L8.03617387,12.5489259 L8.06168553,12.5671485 L8.06806344,12.5671485 L9.12041955,13.2778306 C8.1318426,14.6080816 7.60247559,15.950481 7.53869644,17.311103 C6.04626415,17.8334847 4.56020977,18.3558664 3.0741554,18.8843222 C2.94021917,18.7932091 2.81266085,18.7081703 2.67872462,18.6170572 L4.57934352,16.0598167 C5.0576872,16.2298944 5.61256587,16.0780393 5.92508375,15.6649933 C6.29500286,15.1669085 6.16744455,14.4805232 5.65083337,14.1342935 C5.12784428,13.7819896 4.40713979,13.9034737 4.0435986,14.3954844 C3.73745864,14.8085303 3.76934822,15.361283 4.10099984,15.7318096 L2.20675886,18.2465307 C2.07282262,18.1554176 1.94526431,18.0703787 1.81132808,17.9792656 L1.88148515,13.4418341 L1.88148515,13.4418341 C3.20171371,12.9376751 4.35611647,12.0083216 5.34469341,10.6780706 Z M10.4980494,17.6998522 L10.4980494,18.8418028 L4.9747743,18.8418028 L8.21475551,17.6998522 L10.4980494,17.6998522 Z M5.41166153,9.09574008 C5.6808607,8.73069548 6.18991287,8.64263453 6.56609675,8.89603429 L6.56609675,8.89603429 L10.2955394,11.4082097 C10.3053716,11.4148327 10.3150509,11.4216799 10.3245697,11.428746 C10.6690561,11.6844671 10.7410146,12.1710314 10.4852935,12.5155178 C10.2141178,12.8808234 9.70354587,12.9681646 9.32636103,12.713771 L9.32636103,12.713771 L5.60276728,10.2023804 C5.59372894,10.1962845 5.58481975,10.1899992 5.57604561,10.1835288 C5.23026763,9.92853767 5.15667037,9.44151806 5.41166153,9.09574008 Z M15.7279426,0.223179611 C16.1488466,0.589912128 16.2593747,1.19938263 15.9940542,1.69056273 L12.0272906,9.03411656 C11.4357172,10.129279 10.0683477,10.5375187 8.97318524,9.94594531 C8.93442535,9.92500841 8.89628766,9.90293957 8.85882132,9.87976726 C7.90561645,9.29022585 7.61080897,8.03958289 8.20035038,7.08637803 C8.25832039,6.99264874 8.32382922,6.90379741 8.39622699,6.8207055 L14.0437059,0.339016668 C14.4768075,-0.158059997 15.230866,-0.209922013 15.7279426,0.223179611 Z" id="形状结合" fill="#3179FF"></path>
                        </g>
                    </g>
                </g>
            </g>
        </g>
    </g>
</svg>