<?xml version="1.0" encoding="UTF-8"?>
<svg width="20px" height="20px" viewBox="0 0 20 20" version="1.1" xmlns="http://www.w3.org/2000/svg" xmlns:xlink="http://www.w3.org/1999/xlink">
    <title>退出 (1)</title>
    <g id="0708login蓝湖" stroke="none" stroke-width="1" fill="none" fill-rule="evenodd">
        <g id="login_input-备份" transform="translate(-197.000000, -157.000000)" fill-rule="nonzero">
            <g id="退出-(1)" transform="translate(197.000000, 157.000000)">
                <rect id="矩形" fill="#000000" opacity="0" x="0" y="0" width="20" height="20"></rect>
                <path d="M14.5336229,4.24502973 C15.0216849,4.59209713 15.4555695,4.98532145 15.8351372,5.42450144 C16.2147823,5.8638053 16.5401415,6.33827266 16.8112613,6.84801191 C17.0824585,7.35776664 17.2885002,7.89737398 17.4295259,8.46677197 C17.5705206,9.03616997 17.6409869,9.61368142 17.6409869,10.1993683 C17.6409869,11.2080701 17.448478,12.1543107 17.0634755,13.0382912 C16.678442,13.9221944 16.1578177,14.6922458 15.5016645,15.3483835 C14.8455113,16.0046142 14.0754599,16.525161 13.1914948,16.9101945 C12.3076072,17.2952125 11.3612737,17.4877834 10.3526802,17.4877834 C9.35486345,17.4877834 8.4139493,17.2952124 7.53004616,16.9101945 C6.64606559,16.525161 5.87330453,16.0046141 5.21176297,15.3483835 C4.55014398,14.6922458 4.02955066,13.9221943 3.649952,13.0382912 C3.27032237,12.1543107 3.080554,11.2080546 3.080554,10.1993683 C3.080554,9.62456645 3.14831072,9.0605568 3.28391706,8.50744767 C3.41952341,7.95433855 3.61198594,7.42831042 3.86142852,6.92934783 C4.11093303,6.43049363 4.42001887,5.96412425 4.78877894,5.53033259 C5.15752352,5.09644805 5.56963797,4.7059953 6.0252152,4.35894339 C6.26385016,4.18538647 6.52139072,4.12032392 6.79797627,4.16367831 C7.07448437,4.20714109 7.29954012,4.34265453 7.47311252,4.57040444 C7.64668492,4.79824725 7.71173198,5.05306269 7.66837759,5.33506752 C7.62491481,5.61705686 7.48940137,5.84479128 7.26166695,6.01839466 C6.57833981,6.51724886 6.05502134,7.13003222 5.69166509,7.85671375 C5.32841723,8.58339528 5.14676233,9.3642698 5.14676233,10.1993838 C5.14676233,10.9151803 5.28227577,11.5904249 5.55348845,12.22487 C5.82460823,12.8593305 6.19604698,13.4124241 6.66780469,13.8842128 C7.13970175,14.3560789 7.69279539,14.7302273 8.32725594,15.0068129 C8.96173197,15.283321 9.63683727,15.421637 10.3527421,15.421637 C11.0685386,15.421637 11.7436594,15.283321 12.3781354,15.0068129 C13.0126114,14.7302273 13.5657825,14.3560789 14.0375557,13.8842128 C14.5093599,13.4124242 14.8834928,12.8593305 15.1600783,12.22487 C15.4366793,11.5903939 15.5749024,10.9151802 15.5749024,10.1993838 C15.5749024,9.35346217 15.3797457,8.55354269 14.9893085,7.79974919 C14.5987783,7.04598664 14.0510575,6.42510531 13.3461616,5.93704325 C13.1075266,5.77435589 12.9638378,5.55199433 12.9150331,5.27000497 C12.8661975,4.98800014 12.9231311,4.72768798 13.0858184,4.48903755 C13.2485058,4.26130312 13.4708519,4.12298712 13.7528567,4.07422892 C14.0348306,4.0254707 14.2950034,4.08234238 14.5336229,4.24502973 L14.5336229,4.24502973 Z M10.3526647,10.2482503 C10.0706444,10.2482503 9.82931531,10.1479159 9.62866191,9.947247 C9.4280085,9.74660908 9.32767403,9.50526447 9.32767403,9.22325964 L9.32767403,3.04117119 C9.32767403,2.75916636 9.427993,2.51514306 9.62866189,2.30908584 C9.8293153,2.10301312 10.0706444,2 10.3526647,2 C10.6454462,2 10.8921947,2.10301312 11.0928481,2.30908584 C11.2935015,2.51514308 11.3938204,2.75916636 11.3938204,3.04117119 L11.3938204,9.22325963 C11.3938204,9.50524897 11.2935015,9.74659358 11.0928481,9.94724698 C10.8921947,10.1479159 10.6454462,10.2482503 10.3526647,10.2482503 L10.3526647,10.2482503 Z" id="形状" fill="#333333"></path>
            </g>
        </g>
    </g>
</svg>