<?xml version="1.0" encoding="UTF-8"?>
<svg width="20px" height="20px" viewBox="0 0 20 20" version="1.1" xmlns="http://www.w3.org/2000/svg" xmlns:xlink="http://www.w3.org/1999/xlink">
    <title>网页链接</title>
    <g id="0823交易成功弹窗" stroke="none" stroke-width="1" fill="none" fill-rule="evenodd">
        <g id="交易记录" transform="translate(-100.000000, -750.000000)" fill-rule="nonzero">
            <g id="编组-3" transform="translate(100.000000, 750.000000)">
                <rect id="矩形" fill="#000000" opacity="0" x="0" y="0" width="20" height="20"></rect>
                <path d="M10,3 C13.8888889,3 17,6.1111111 17,10 C17,13.8888889 13.8888889,17 10,17 C6.11111112,17 3,13.8888889 3,10 C3,6.1111111 6.1111111,3 10,3 Z M11.5699218,13.499569 L8.44926058,13.4996089 C8.73520315,14.3087061 9.13861818,15.1423186 9.68888889,15.9888889 L9.86264808,16.2207165 C9.90831663,16.2217186 9.95410235,16.2222222 10,16.2222222 L10.196,16.219 L10.3111111,16.0666667 C10.8763691,15.197039 11.2851436,14.3365269 11.5699218,13.499569 Z M7.65002545,13.4992411 L4.86263761,13.4997586 C5.77906661,14.8381636 7.20355226,15.8046775 8.85214804,16.1153539 C8.31101876,15.2268362 7.92077981,14.3508842 7.65002545,13.4992411 Z M15.1373624,13.4997586 L12.3544419,13.4992411 C12.0812806,14.3508842 11.6893915,15.2268362 11.1485505,16.1140915 C12.7964477,15.8046775 14.2209334,14.8381636 15.1373624,13.4997586 Z M7.49153034,7.27740147 L4.40914217,7.27707673 C4.00501586,8.1006539 3.77777778,9.02507828 3.77777778,10 C3.77777778,10.9749217 4.00501586,11.8993461 4.40914217,12.7229233 L7.43366275,12.7225804 C6.94230101,10.6733037 7.11295324,8.79427516 7.49153034,7.27740147 Z M11.7420691,7.27680315 L8.2307468,7.27768886 C7.83336939,8.75832376 7.64842281,10.6427913 8.20751215,12.7219933 L11.8014572,12.7226852 C12.3326226,10.6513495 12.1388177,8.75871823 11.7420691,7.27680315 Z M15.5908578,7.27707673 L12.5386062,7.27740147 C12.9112982,8.79427516 13.0714956,10.6733037 12.5732179,12.7225804 L15.5908578,12.7229233 C15.9949841,11.8993461 16.2222222,10.9749217 16.2222222,10 C16.2222222,9.02507828 15.9949841,8.1006539 15.5908578,7.27707673 Z M8.86772726,3.88192477 L8.66945844,3.92194897 C7.09888479,4.26751567 5.7457488,5.21103596 4.86333015,6.49923016 L7.71213497,6.49898318 C8.1043077,5.26364078 8.59782047,4.34551185 8.86772726,3.88192477 Z M10,3.77777778 L9.862,3.779 L9.68888889,4.01111111 C9.62718753,4.10366315 8.97811158,5.02832918 8.46973312,6.49873421 L11.5045887,6.49869892 C10.9913939,5.00391226 10.342123,4.08888889 10.3111111,4.08888889 L10.1257963,3.7790406 C10.0839607,3.77820006 10.0420273,3.77777778 10,3.77777778 Z M11.1588865,3.886736 L11.1927346,3.94372355 C11.4793292,4.42442135 11.9486488,5.31633879 12.3206754,6.49898318 L15.1366699,6.49923016 C14.2222617,5.1643362 12.8023885,4.19955945 11.1588865,3.886736 Z" id="形状结合" stroke="#3179FF" stroke-width="0.5" fill="#3179FF"></path>
            </g>
        </g>
    </g>
</svg>