<?xml version="1.0" standalone="no"?><!DOCTYPE svg PUBLIC "-//W3C//DTD SVG 1.1//EN" "http://www.w3.org/Graphics/SVG/1.1/DTD/svg11.dtd"><svg t="1627823816657" class="icon" viewBox="0 0 1167 1024" version="1.1" xmlns="http://www.w3.org/2000/svg" p-id="1646" xmlns:xlink="http://www.w3.org/1999/xlink" width="227.9296875" height="200"><defs><style type="text/css"></style></defs><path d="M875.01824 329.50784a109.99296 109.99296 0 0 0-32.28672-77.84448c-42.97216-42.90048-112.57856-42.84416-155.50464 0.09216-42.92096 42.95168-42.92096 112.55808 0 155.50464 42.91584 42.94144 112.52224 42.9824 155.50464 0.09728a109.99296 109.99296 0 0 0 32.28672-77.8496z m-292.7872 391.64928l-173.9776-223.93344a54.528 54.528 0 0 0-87.43936 0l-258.23744 300.10368V136.30976c-2.43712-37.94432 26.34752-70.68672 64.29696-73.12384h401.99168L560.36352 0H145.6384C65.0496 0.50176 0 65.96096 0 146.54976v731.20256c0.16896 80.5888 65.36192 145.90976 145.94048 146.24768h333.1072l143.96416-252.82048-40.7808-50.0224z" p-id="1647" fill="#cdcdcd"></path><path d="M1020.65152 0h-322.49344l-38.06208 63.18592h370.7904a78.60224 78.60224 0 0 1 72.82176 73.12384v658.28352l-185.43104-223.93344a57.92256 57.92256 0 0 0-95.67232-7.32672l-120.448 121.04704 67.1488 75.47392L625.40288 1024h395.24864c80.4608-0.50176 145.46944-65.78176 145.63328-146.24768V146.54976c0-80.5888-65.04448-146.048-145.63328-146.54976z" p-id="1648" fill="#cdcdcd"></path></svg>