<?xml version="1.0" encoding="UTF-8"?>
<svg width="49px" height="25px" viewBox="0 0 49 25" version="1.1" xmlns="http://www.w3.org/2000/svg" xmlns:xlink="http://www.w3.org/1999/xlink">
    <title>编组 6</title>
    <g id="0708login蓝湖" stroke="none" stroke-width="1" fill="none" fill-rule="evenodd">
        <g id="login_input备份" transform="translate(-306.000000, -55.000000)">
            <g id="编组-6" transform="translate(306.000000, 55.000000)">
                <rect id="矩形" fill="#E9F0FF" x="0" y="0" width="49" height="25" rx="6"></rect>
                <g id="编组-5" transform="translate(9.000000, 5.000000)" fill="#3179FF" fill-rule="nonzero">
                    <g id="编组-4" transform="translate(19.866306, 0.994756)" stroke="#E9F0FF" stroke-width="0.4">
                        <path d="M10.4480943,5.52684437 L1.28009429,5.52684437 C0.572894286,5.52684437 9.42855786e-05,4.95404437 9.42855786e-05,4.24684437 C9.42855786e-05,3.53964437 0.572894286,2.96684437 1.28009429,2.96684437 L7.59689429,2.96684437 L6.85289429,2.13004437 C6.62702883,1.87653121 6.51138129,1.54352908 6.53149547,1.20459023 C6.55160964,0.865651377 6.70583049,0.548664469 6.96009429,0.323644366 C7.21360744,0.0977789099 7.54660957,-0.0178686244 7.88554842,0.00224555016 C8.22448728,0.0223597248 8.54147418,0.176580568 8.76649429,0.430844366 L11.4048943,3.39884437 C11.7392943,3.77484437 11.8224943,4.31404437 11.6160943,4.77324437 C11.4096943,5.23244437 10.9520943,5.52684437 10.4480943,5.52684437 L10.4480943,5.52684437 Z M3.91849429,13.1028463 C3.56489429,13.1028463 3.21449429,12.9572444 2.96169429,12.6724444 L0.323294286,9.70444437 C-0.0113952125,9.32777127 -0.0940594837,8.78982726 0.112094286,8.33004437 C0.318988935,7.870482 0.776107219,7.57492058 1.28009429,7.57484437 L10.4464943,7.57484437 C11.1536943,7.57484437 11.7264943,8.14764437 11.7264943,8.85484437 C11.7264943,9.56204437 11.1536943,10.1348444 10.4464943,10.1348444 L4.12969429,10.1348444 L4.87369429,10.9716444 C5.09955974,11.2251575 5.21520728,11.5581597 5.1950931,11.8970985 C5.17497893,12.2360374 5.02075808,12.5530243 4.76649429,12.7780444 C4.53383505,12.9876409 4.23164077,13.103387 3.91849429,13.1028463 L3.91849429,13.1028463 Z" id="形状"></path>
                    </g>
                    <g id="编组-3">
                        <path d="M7.392,15.008 L7.392,9.664 L11.392,9.664 L11.392,10.544 L13.072,10.544 L13.072,2.736 L7.392,2.736 L7.392,0 L5.664,0 L5.664,2.736 L0,2.736 L0,10.544 L1.68,10.544 L1.68,9.664 L5.664,9.664 L5.664,15.008 L7.392,15.008 Z M5.664,8.032 L1.68,8.032 L1.68,4.368 L5.664,4.368 L5.664,8.032 Z M11.392,8.032 L7.392,8.032 L7.392,4.368 L11.392,4.368 L11.392,8.032 Z" id="中"></path>
                    </g>
                </g>
            </g>
        </g>
    </g>
</svg>