<?xml version="1.0" encoding="UTF-8"?>
<svg width="20px" height="20px" viewBox="0 0 20 20" version="1.1" xmlns="http://www.w3.org/2000/svg" xmlns:xlink="http://www.w3.org/1999/xlink">
    <title>编组</title>
    <g id="0708login蓝湖" stroke="none" stroke-width="1" fill="none" fill-rule="evenodd">
        <g id="login_input-备份" transform="translate(-197.000000, -106.000000)">
            <g id="编组" transform="translate(197.000000, 106.000000)">
                <rect id="矩形" x="0" y="0" width="20" height="20"></rect>
                <g id="编组-4" transform="translate(4.000000, 3.000000)" fill="#333333" fill-rule="nonzero" stroke="#FFFFFF" stroke-width="0.4">
                    <path d="M1.30967096,5.48346096 C0.586077753,5.48346096 0,4.9151572 0,4.21350842 C0,3.51185964 0.586077753,2.94355588 1.30967096,2.94355588 L8.77290455,2.94355588 L8.01165831,2.11332441 C7.78055719,1.86180123 7.6622289,1.53141303 7.68280933,1.1951347 C7.70338976,0.858856377 7.86118551,0.544357683 8.12134325,0.321103894 C8.38073295,0.0970113865 8.72145421,-0.0177283632 9.06824982,0.00222792354 C9.41504542,0.0221842103 9.73938022,0.175194484 9.96961639,0.427462419 L12.6691756,3.37216487 C13.0113272,3.74521342 13.0964558,4.28018093 12.8852714,4.7357764 C12.6740869,5.19137188 12.2058795,5.48346096 11.6901966,5.48346096 L1.30967096,5.48346096 Z M3.03034765,12.572971 L0.330788388,9.62826855 C-0.0116593585,9.25455218 -0.0962398234,8.72083081 0.11469268,8.26465702 C0.326383238,7.80870202 0.794097722,7.51546064 1.30976743,7.51538502 L11.688656,7.51538502 C12.4122492,7.51538502 12.9983269,8.08368878 12.9983269,8.78533756 C12.9983269,9.48698633 12.4122492,10.0552901 11.688656,10.0552901 L4.2254224,10.0552901 L4.98666864,10.8855216 C5.21776976,11.1370448 5.33609805,11.467433 5.31551762,11.8037113 C5.29493719,12.1399896 5.13714144,12.4544883 4.8769837,12.6777421 C4.63893132,12.8856933 4.32973204,13.0005309 4.00932669,12.9999982 C3.64753009,12.9999982 3.28900766,12.8555354 3.03034765,12.572971 Z" id="形状"></path>
                </g>
            </g>
        </g>
    </g>
</svg>