<?xml version="1.0" encoding="UTF-8"?>
<svg width="49px" height="25px" viewBox="0 0 49 25" version="1.1" xmlns="http://www.w3.org/2000/svg" xmlns:xlink="http://www.w3.org/1999/xlink">
    <title>编组 14备份</title>
    <g id="0708signup蓝湖" stroke="none" stroke-width="1" fill="none" fill-rule="evenodd">
        <g id="页面基础结构及用色规范" transform="translate(-100.000000, -462.000000)">
            <g id="编组-6备份" transform="translate(100.000000, 462.000000)">
                <rect id="矩形" fill="#E9F0FF" x="0" y="0" width="49" height="25" rx="6"></rect>
                <g id="编组-5" transform="translate(6.000000, 5.994756)" fill="#3179FF" fill-rule="nonzero">
                    <g id="编组-11">
                        <path d="M36.3144,5.52684437 L27.1464,5.52684437 C26.4392,5.52684437 25.8664,4.95404437 25.8664,4.24684437 C25.8664,3.53964437 26.4392,2.96684437 27.1464,2.96684437 L33.4632,2.96684437 L32.7192,2.13004437 C32.4933345,1.87653121 32.377687,1.54352908 32.3978012,1.20459023 C32.4179154,0.865651377 32.5721362,0.548664469 32.8264,0.323644366 C33.0799132,0.0977789099 33.4129153,-0.0178686244 33.7518541,0.00224555016 C34.090793,0.0223597248 34.4077799,0.176580568 34.6328,0.430844366 L37.2712,3.39884437 C37.6056,3.77484437 37.6888,4.31404437 37.4824,4.77324437 C37.276,5.23244437 36.8184,5.52684437 36.3144,5.52684437 L36.3144,5.52684437 Z M29.7848,13.1028463 C29.4312,13.1028463 29.0808,12.9572444 28.828,12.6724444 L26.1896,9.70444437 C25.8549105,9.32777127 25.7722462,8.78982726 25.9784,8.33004437 C26.1852946,7.870482 26.6424129,7.57492058 27.1464,7.57484437 L36.3128,7.57484437 C37.02,7.57484437 37.5928,8.14764437 37.5928,8.85484437 C37.5928,9.56204437 37.02,10.1348444 36.3128,10.1348444 L29.996,10.1348444 L30.74,10.9716444 C30.9658655,11.2251575 31.081513,11.5581597 31.0613988,11.8970985 C31.0412846,12.2360374 30.8870638,12.5530243 30.6328,12.7780444 C30.4001408,12.9876409 30.0979465,13.103387 29.7848,13.1028463 L29.7848,13.1028463 Z" id="形状" stroke="#E9F0FF" stroke-width="0.4"></path>
                        <path d="M8.48,12.4292444 L8.48,10.9412444 L1.744,10.9412444 L1.744,7.30924437 L7.824,7.30924437 L7.824,5.82124437 L1.744,5.82124437 L1.744,2.49324437 L8.208,2.49324437 L8.208,1.00524437 L0,1.00524437 L0,12.4292444 L8.48,12.4292444 Z M11,12.4292444 L11,3.83724437 L11.064,3.83724437 L16.968,12.4292444 L18.664,12.4292444 L18.664,1.00524437 L16.92,1.00524437 L16.92,9.50124437 L16.856,9.50124437 L11.016,1.00524437 L9.256,1.00524437 L9.256,12.4292444 L11,12.4292444 Z" id="EN"></path>
                    </g>
                </g>
            </g>
        </g>
    </g>
</svg>