<?xml version="1.0" standalone="no"?><!DOCTYPE svg PUBLIC "-//W3C//DTD SVG 1.1//EN" "http://www.w3.org/Graphics/SVG/1.1/DTD/svg11.dtd"><svg t="1628852071625" class="icon" viewBox="0 0 1257 1024" version="1.1" xmlns="http://www.w3.org/2000/svg" p-id="4750" xmlns:xlink="http://www.w3.org/1999/xlink" width="245.5078125" height="200"><defs><style type="text/css"></style></defs><path d="M850.969529 309.959204a393.25107 393.25107 0 0 1 42.806346 2.578696C855.095442 132.029212 663.498363 0 444.824981 0 200.106774 0 0 166.841602 0 378.552506c0 121.972299 66.530345 222.541425 177.929992 300.41803l-44.353563 133.834299 154.721733-77.360866a756.589272 756.589272 0 0 0 154.721732 22.434651c13.924956 0 27.849912 0 41.516998-1.805087a329.55729 329.55729 0 0 1-13.667086-93.348779c1.805087-194.949383 168.646688-352.76555 380.099723-352.76555z m-239.560816-120.682951a51.573911 51.573911 0 0 1 55.699824 55.441954 51.573911 51.573911 0 0 1-55.699824 55.699824 62.404432 62.404432 0 0 1-66.788214-55.699824 62.404432 62.404432 0 0 1 66.788214-55.441954z m-311.506421 111.141778a62.404432 62.404432 0 0 1-66.788215-55.699824 62.404432 62.404432 0 0 1 66.788215-55.441954 51.573911 51.573911 0 0 1 55.699823 55.441954 51.573911 51.573911 0 0 1-55.441954 55.699824z m956.180307 356.375724c0-177.929992-177.929992-322.852682-377.778897-322.852682-211.710904 0-378.294636 144.922689-378.294636 322.852682s166.583732 322.852682 378.294636 322.852682a563.444976 563.444976 0 0 0 133.576429-22.434652l121.972299 66.788215-32.491564-111.141778c88.964996-67.046084 154.721733-155.753211 154.721733-256.064467zM755.557794 601.093931a44.611433 44.611433 0 1 1 0-88.964996 51.573911 51.573911 0 0 1 55.699824 44.353563 51.573911 51.573911 0 0 1-54.926215 44.611433z m244.718207 0a44.611433 44.611433 0 0 1 0-88.964996 51.573911 51.573911 0 0 1 55.699824 44.353563 51.573911 51.573911 0 0 1-54.926215 44.611433z" fill="#000000" p-id="4751"></path></svg>