<svg t="1635678442173" class="icon" viewBox="0 0 1024 1024" version="1.1" xmlns="http://www.w3.org/2000/svg" p-id="2567" width="16" height="16"><path d="M128.512 312q13.504 0 23.008-9.504t9.504-22.496V180.992q0-8 5.504-13.504t13.504-5.504H279.04q12.992 0 22.496-9.504t9.504-23.008-9.504-23.008-22.496-9.504H153.024q-23.008 0-40 16.992t-16.992 40v126.016q0 12.992 9.504 22.496t23.008 9.504z m150.496 551.008H180q-8 0-13.504-5.504t-5.504-13.504v-98.016q0-14.016-9.504-23.488t-23.008-9.504-23.008 9.504-9.504 23.488v124.992q0 24 16.992 40.512T152.96 928h126.016q12.992 0 22.496-9.504t9.504-23.008-9.504-23.008-22.496-9.504z m615.488-150.016q-13.504 0-23.008 9.504t-9.504 23.488v98.016q0 8-5.504 13.504t-13.504 5.504h-99.008q-12.992 0-22.496 9.504t-9.504 23.008 9.504 23.008 22.496 9.504h126.016q24 0 40.512-16.512t16.512-40.512v-124.992q0-14.016-9.504-23.488t-23.008-9.504z m-24.48-616H744q-12.992 0-22.496 9.504t-9.504 23.008 9.504 23.008 22.496 9.504h99.008q8 0 13.504 5.504t5.504 13.504v99.008q0 12.992 9.504 22.496t23.008 9.504 23.008-9.504 9.504-22.496V154.016q0-23.008-16.512-40t-40.512-16.992zM250.016 308v408.992q0 24 16.512 40.992t40.512 16.992h408.992q24 0 40.992-16.992t16.992-40.992V308q0-24-16.992-40.512t-40.992-16.512H307.04q-24 0-40.512 16.512t-16.512 40.512z m60.992 386.016V332q0-8 6.016-14.016t14.016-6.016h360.992q8.992 0 14.496 6.016t5.504 14.016v362.016q0 8-5.504 13.504t-14.496 5.504H331.04q-8 0-14.016-5.504t-6.016-13.504z" p-id="2568"></path></svg>
