<?xml version="1.0" encoding="UTF-8"?>
<svg width="20px" height="20px" viewBox="0 0 20 20" version="1.1" xmlns="http://www.w3.org/2000/svg" xmlns:xlink="http://www.w3.org/1999/xlink">
    <title>facebook</title>
    <g id="0817代币详情页" stroke="none" stroke-width="1" fill="none" fill-rule="evenodd">
        <g id="代币详情页" transform="translate(-291.000000, -650.000000)" fill-rule="nonzero">
            <g id="facebook" transform="translate(291.000000, 650.000000)">
                <rect id="矩形" fill="#000000" opacity="0" x="0" y="0" width="20" height="20"></rect>
                <path d="M19.9,10 C19.9,4.53250001 15.4675,0.1 10,0.1 C4.53250001,0.1 0.1,4.53250001 0.1,10 C0.1,15.4675 4.53250001,19.9 10,19.9 C15.4675,19.9 19.9,15.4675 19.9,10 Z M7.34139999,10 L7.34139999,8.1055 L8.50239999,8.1055 L8.50240001,6.95980001 C8.50240001,5.41450002 8.9641,4.3012 10.6561,4.3012 L12.6685,4.3012 L12.6685,6.19120001 L11.2519,6.19120001 C10.5418,6.19120001 10.3807,6.66280001 10.3807,7.15690002 L10.3807,8.10550002 L12.5641,8.10550002 L12.2662,10 L10.3807,10 L10.3807,15.7141 L8.50240001,15.7141 L8.50240001,10 L7.34139999,10 Z" id="形状" fill="#3974EA"></path>
            </g>
        </g>
    </g>
</svg>