<?xml version="1.0" encoding="UTF-8"?>
<svg width="20px" height="20px" viewBox="0 0 20 20" version="1.1" xmlns="http://www.w3.org/2000/svg" xmlns:xlink="http://www.w3.org/1999/xlink">
    <title>github</title>
    <g id="0817代币详情页" stroke="none" stroke-width="1" fill="none" fill-rule="evenodd">
        <g id="代币详情页" transform="translate(-259.000000, -650.000000)" fill="#000000" fill-rule="nonzero">
            <g id="github" transform="translate(259.000000, 650.000000)">
                <rect id="矩形" opacity="0" x="0" y="0" width="20" height="20"></rect>
                <path d="M10,0.925000006 C5.04122134,0.874610482 0.979389002,4.8515136 0.925000006,9.81025001 C0.943825242,13.6712551 3.44951194,17.079922 7.129,18.25 C7.58275001,18.3325 7.74775,18.06025 7.74775,17.821 L7.74775,16.31125 C5.22325,16.8475 4.68700001,15.12325 4.68700001,15.12325 C4.51894468,14.5819675 4.16166656,14.1192631 3.68049999,13.81975 C2.85549999,13.27525 3.74649999,13.2835 3.74650001,13.2835 C4.3242308,13.3607354 4.83484991,13.6981087 5.13250001,14.19925 C5.66513054,15.1228421 6.83949353,15.4494618 7.7725,14.9335 C7.81862339,14.4817153 8.0232107,14.0608499 8.35000001,13.7455 C6.337,13.52275 4.22500001,12.76375 4.22499999,9.3565 C4.20699866,8.46771073 4.53540019,7.60676616 5.14074999,6.95575 C4.8650574,6.19268142 4.89761095,5.35220802 5.23150001,4.61275001 C5.23150001,4.61275001 5.99875001,4.37350001 7.70650001,5.52025 C9.19306256,5.12411677 10.7574374,5.12411677 12.244,5.52025 C13.9765,4.37349999 14.719,4.61275001 14.719,4.61275001 C15.0528891,5.35220802 15.0854426,6.19268142 14.80975,6.95575 C15.4291616,7.59483381 15.7753711,8.45000071 15.775,9.34000001 C15.775,12.7555 13.6465,13.50625 11.65,13.729 C12.0926552,14.1587716 12.3196678,14.7641385 12.26875,15.379 L12.26875,17.81275 C12.26875,18.1015 12.43375,18.3325 12.8875,18.24175 C16.5559934,17.0645931 19.0523324,13.6629151 19.075,9.81025001 C19.020611,4.8515136 14.9587787,0.874610482 10,0.925000006" id="路径"></path>
            </g>
        </g>
    </g>
</svg>