<?xml version="1.0" encoding="UTF-8"?>
<svg width="20px" height="20px" viewBox="0 0 20 20" version="1.1" xmlns="http://www.w3.org/2000/svg" xmlns:xlink="http://www.w3.org/1999/xlink">
    <title>编组 12备份 8</title>
    <g id="0823交易成功弹窗" stroke="none" stroke-width="1" fill="none" fill-rule="evenodd">
        <g id="交易记录" transform="translate(-30.000000, -602.000000)">
            <g id="编组-12备份-8" transform="translate(30.000000, 602.000000)">
                <rect id="矩形" x="0" y="0" width="20" height="20"></rect>
                <g id="编组-11" transform="translate(3.412332, 2.967142)" fill="#FFA71A" fill-rule="nonzero">
                    <path d="M6.36772319,4.8461235e-14 C6.54484577,-0.0024984654 6.72184814,0.0426572619 6.87779109,0.133276323 L6.99420431,0.211136914 C7.06091778,0.260039149 7.12161758,0.316661682 7.17498776,0.379688554 L12.3132741,4.48970694 C12.7207956,4.81553531 12.8462059,5.37405378 12.6317468,5.83769969 L12.571018,5.9514451 L12.5032327,6.06268553 C12.4814954,6.098358 12.4575108,6.13261154 12.4314242,6.16523864 C12.1178411,6.55744474 11.565576,6.64644814 11.1482802,6.39062512 L11.0469844,6.3194614 L7.422,3.421 L7.42228989,13.2177625 C7.42228989,13.7952359 6.95415515,14.2633707 6.37668169,14.2633707 C5.79920822,14.2633707 5.33107349,13.7952359 5.33107349,13.2177625 L5.331,3.406 L1.68814694,6.3194614 C1.26325699,6.65917647 0.64342215,6.59012859 0.303707077,6.16523864 C0.277620517,6.13261154 0.253635931,6.098358 0.231898616,6.06268553 L0.164113346,5.9514451 C-0.130017167,5.4687561 -0.019624412,4.84268767 0.421857222,4.48970694 L5.60514642,0.343470041 C5.80228296,0.113518276 6.08444838,-0.00405233189 6.36772319,4.8461235e-14 Z" id="形状结合"></path>
                </g>
            </g>
        </g>
    </g>
</svg>