<?xml version="1.0" encoding="UTF-8"?>
<svg width="21px" height="20px" viewBox="0 0 21 20" version="1.1" xmlns="http://www.w3.org/2000/svg" xmlns:xlink="http://www.w3.org/1999/xlink">
    <title>编组 3</title>
    <g id="0817代币详情页" stroke="none" stroke-width="1" fill="none" fill-rule="evenodd">
        <g id="代币详情页备份-4" transform="translate(-110.000000, -229.000000)">
            <g id="编组-9" transform="translate(32.000000, 220.000000)">
                <g id="编组-3" transform="translate(78.500000, 9.000000)">
                    <rect id="矩形" x="0" y="0" width="20" height="20"></rect>
                    <g id="二维码" transform="translate(2.000000, 2.000000)" fill-rule="nonzero">
                        <rect id="矩形" fill="#000000" opacity="0" x="0" y="0" width="16" height="16"></rect>
                        <path d="M4.30077552,0.256956906 L1.49046963,0.256956906 C0.672559094,0.256956906 0.00951809375,0.920013641 0.00951809375,1.73790844 L0.00951809375,4.54821433 C0.00951809375,5.36609339 0.672574828,6.02916586 1.49046963,6.02916586 L4.30077552,6.02916586 C5.11867031,6.02916586 5.78172705,5.36609339 5.78172705,4.54821433 L5.78172705,1.73790844 C5.78172705,0.919997922 5.1186703,0.256956906 4.30077552,0.256956906 Z M4.20748252,4.08470705 C4.20748252,4.28918075 4.0417262,4.4549528 3.8372525,4.4549528 L1.95399263,4.4549528 C1.74950319,4.4549528 1.58374688,4.28918075 1.58374688,4.08470705 L1.58374688,2.20144719 C1.58374688,1.9969263 1.74951892,1.83120144 1.95399263,1.83120144 L3.8372525,1.83120144 C4.04174194,1.83120144 4.20748252,1.9969263 4.20748252,2.20144719 L4.20748252,4.08470705 Z M14.2709174,0.256956906 L11.460643,0.256956906 C10.6427325,0.256956906 9.9797072,0.920013641 9.9797072,1.73790844 L9.9797072,4.54821433 C9.9797072,5.36609339 10.6427325,6.02916586 11.460643,6.02916586 L14.2709174,6.02916586 C15.088828,6.02916586 15.751869,5.36609339 15.751869,4.54821433 L15.751869,1.73790844 C15.751869,0.919997922 15.0888437,0.256956906 14.2709174,0.256956906 Z M14.1776874,4.08470705 C14.1776874,4.28918075 14.0119153,4.4549528 13.8074416,4.4549528 L11.9241818,4.4549528 C11.7196923,4.4549528 11.553936,4.28918075 11.553936,4.08470705 L11.553936,2.20144719 C11.553936,1.9969263 11.7196923,1.83120144 11.9241818,1.83120144 L13.8074259,1.83120144 C14.0118996,1.83120144 14.1776874,1.9969263 14.1776874,2.20144719 L14.1776874,4.08470705 L14.1776874,4.08470705 Z M4.30077552,10.227146 L1.49046963,10.227146 C0.672559094,10.227146 0.00951809375,10.890187 0.00951809375,11.7080975 L0.00951809375,14.5184034 C0.00951809375,15.3362825 0.672574828,15.999355 1.49046963,15.999355 L4.30077552,15.999355 C5.11867031,15.999355 5.78172705,15.3362982 5.78172705,14.5184034 L5.78172705,11.7080818 C5.78172705,10.8901713 5.1186703,10.227146 4.30077552,10.227146 Z M4.20748252,14.0548647 C4.20748252,14.2593384 4.0417262,14.4250947 3.8372525,14.4250947 L1.95399263,14.4250947 C1.74950319,14.4250947 1.58374688,14.2593384 1.58374688,14.0548647 L1.58374688,12.1716206 C1.58374688,11.9671154 1.74951892,11.8013748 1.95399263,11.8013748 L3.8372525,11.8013748 C4.04174194,11.8013748 4.20748252,11.9671154 4.20748252,12.1716206 L4.20748252,14.0548647 Z M14.2709174,10.227146 L11.460643,10.227146 C10.6427325,10.227146 9.9797072,10.890187 9.9797072,11.7080975 L9.9797072,14.5184034 C9.9797072,15.3362825 10.6427325,15.999355 11.460643,15.999355 L14.2709174,15.999355 C15.088828,15.999355 15.751869,15.3362982 15.751869,14.5184034 L15.751869,11.7080818 C15.751869,10.8901713 15.0888437,10.227146 14.2709174,10.227146 Z M14.1776874,14.0548647 C14.1776874,14.2593384 14.0119153,14.4250947 13.8074416,14.4250947 L11.9241818,14.4250947 C11.7196923,14.4250947 11.553936,14.2593384 11.553936,14.0548647 L11.553936,12.1716206 C11.553936,11.9671154 11.7196923,11.8013748 11.9241818,11.8013748 L13.8074259,11.8013748 C14.0118996,11.8013748 14.1776874,11.9671154 14.1776874,12.1716206 L14.1776874,14.0548647 L14.1776874,14.0548647 Z M11.553936,7.0786727 L8.93021609,7.0786727 L8.93021609,1.30643228 C8.93021609,0.726804328 8.46032147,0.256956906 7.88069352,0.256956906 C7.3010813,0.256956906 6.83121814,0.726820063 6.83121814,1.30643228 L6.83121814,7.07865697 L1.05904066,7.07865697 C0.479428437,7.07865697 0.00954954687,7.54852013 0.00954954687,8.12813234 C0.00954954687,8.70772883 0.479428437,9.17765492 1.05904066,9.17765492 L11.553936,9.17765492 C12.1335482,9.17765492 12.6034114,8.70772883 12.6034114,8.12813234 C12.6034114,7.54852013 12.1335482,7.0786727 11.553936,7.0786727 Z M8.93021609,14.9498481 C8.93021609,15.5294604 8.46032147,15.9993393 7.88069352,15.9993393 L7.88069352,15.9993393 C7.3010813,15.9993393 6.83121814,15.5294604 6.83121814,14.9498481 L6.83121814,11.2766686 C6.83121814,10.6970249 7.30109703,10.227146 7.88069352,10.227146 L7.88069352,10.227146 C8.46032147,10.227146 8.93021609,10.6970249 8.93021609,11.2766686 L8.93021609,14.9498481 Z M15.751869,8.12814808 C15.751869,8.70774456 15.2820373,9.17767066 14.7024093,9.17767066 L14.7024093,9.17767066 C14.1227499,9.17767066 13.6529182,8.70774456 13.6529182,8.12814808 L13.6529182,8.12814808 C13.6529182,7.54852012 14.1227499,7.0786727 14.7024093,7.0786727 L14.7024093,7.0786727 C15.2820373,7.0786727 15.751869,7.54852012 15.751869,8.12814808 L15.751869,8.12814808 Z" id="形状" fill="#3179FF"></path>
                    </g>
                </g>
            </g>
        </g>
    </g>
</svg>