<?xml version="1.0" encoding="UTF-8"?>
<svg width="20px" height="20px" viewBox="0 0 20 20" version="1.1" xmlns="http://www.w3.org/2000/svg" xmlns:xlink="http://www.w3.org/1999/xlink">
    <title>矩形</title>
    <g id="0817代币详情页" stroke="none" stroke-width="1" fill="none" fill-rule="evenodd">
        <g id="交易记录" transform="translate(-280.000000, -229.000000)" fill="#3179FF" fill-rule="nonzero">
            <g id="编组-18" transform="translate(245.000000, 229.000000)">
                <g id="编组-17" transform="translate(35.000000, 0.000000)">
                    <path d="M2.8,8.22710887 C3.25882118,8.22710887 3.63745178,8.57044554 3.69298772,9.01421478 L3.7,9.12710887 L3.7,15.5287119 C3.7,15.8613264 4.02438694,16.1749672 4.4827329,16.2212515 L4.6,16.2271089 L15.4,16.2271089 C15.87935,16.2271089 16.2406101,15.9390538 16.2933521,15.6113265 L16.3,15.5287119 L16.3,9.20151875 C16.3,8.70446247 16.7029437,8.30151875 17.2,8.30151875 C17.6588212,8.30151875 18.0374518,8.64485541 18.0929877,9.08862466 L18.1,9.20151875 L18.1,15.5287119 C18.1,16.8798736 16.9618059,17.9425559 15.5683797,18.0223019 L15.4,18.0271089 L4.6,18.0271089 C3.18756806,18.0271089 1.99504961,17.0163944 1.90540682,15.6894221 L1.9,15.5287119 L1.9,9.12710887 C1.9,8.6300526 2.30294373,8.22710887 2.8,8.22710887 Z M10.0073904,1.97289113 C10.2377205,1.97289113 10.4680506,2.06075909 10.6437865,2.23649503 C10.6765905,2.26929907 10.7063329,2.30400541 10.7330135,2.34025896 L14.4473823,6.05487164 C14.7988542,6.40634351 14.7988542,6.97619199 14.4473823,7.32766385 C14.1251998,7.64984639 13.6195202,7.67669494 13.2667548,7.40820948 L13.1745901,7.32766385 L10.8990138,5.05189113 L10.9,12.4423788 C10.9,12.9394351 10.4970563,13.3423788 10,13.3423788 C9.50294373,13.3423788 9.1,12.9394351 9.1,12.4423788 L9.09901378,5.05289113 L6.82540988,7.32766385 C6.47393802,7.67913571 5.90408954,7.67913571 5.55261768,7.32766385 C5.20114581,6.97619199 5.20114581,6.40634351 5.55261768,6.05487164 L9.26913708,2.33734906 C9.29526267,2.30214751 9.32428814,2.26842039 9.3562135,2.23649503 C9.53194943,2.06075909 9.76227952,1.97289113 9.9926096,1.97289113 L10.0073904,1.97289113 Z" id="形状结合"></path>
                </g>
            </g>
        </g>
    </g>
</svg>