<?xml version="1.0" encoding="UTF-8"?>
<svg width="20px" height="20px" viewBox="0 0 20 20" version="1.1" xmlns="http://www.w3.org/2000/svg" xmlns:xlink="http://www.w3.org/1999/xlink">
    <title>推特_twitter43</title>
    <g id="0817代币详情页" stroke="none" stroke-width="1" fill="none" fill-rule="evenodd">
        <g id="代币详情页" transform="translate(-323.000000, -650.000000)" fill-rule="nonzero">
            <g id="推特_twitter43" transform="translate(323.000000, 650.000000)">
                <rect id="矩形" fill="#000000" opacity="0" x="0" y="0" width="20" height="20"></rect>
                <path d="M19.9,10 C19.9,4.53250001 15.4675,0.1 10,0.1 C4.53250001,0.1 0.1,4.53250001 0.1,10 C0.1,15.4675 4.53250001,19.9 10,19.9 C15.4675,19.9 19.9,15.4675 19.9,10 Z M4.66930001,13.5181 C4.8403,13.5397 5.01490001,13.5514 5.19130001,13.5514 C6.21640002,13.5532 7.15960001,13.1833 7.90750002,12.5623 C6.94990001,12.5398 6.14260002,11.863 5.86450001,10.9342 C5.99770001,10.9621 6.13540002,10.9783 6.27580002,10.9792 C6.47560002,10.9801 6.66820001,10.9531 6.85180002,10.9009 C5.85100003,10.6795 5.09680003,9.73000001 5.09680003,8.59869999 C5.09680003,8.58879999 5.09680003,8.57889999 5.09680003,8.56899999 C5.39200002,8.74719999 5.72860002,8.8552 6.08770002,8.8714 C5.5018,8.4475 5.1157,7.72749999 5.1157,6.9175 C5.1157,6.4891 5.22370001,6.0895 5.41180001,5.74749999 C6.49090001,7.17399999 8.1028,8.1208 9.91990001,8.23869999 C9.88210001,8.06859999 9.8632,7.8913 9.8632,7.71039999 C9.8632,6.43149999 10.8424,5.41089999 12.0502,5.43069999 C12.6793,5.44149999 13.2481,5.73039999 13.6468,6.18399999 C14.1454,6.08859999 14.6134,5.90499998 15.0355,5.64849999 C14.8726,6.1822 14.5252,6.62679999 14.0734,6.9049 C14.5162,6.8554 14.9374,6.73840001 15.3298,6.5611 C15.0364,7.01739999 14.6656,7.4161 14.2381,7.7347 C14.2426,7.8337 14.2444,7.9327 14.2444,8.0317 C14.2444,11.0683 12.0439,14.5702 8.02090001,14.5684016 C6.78699999,14.5693 5.63679999,14.1823 4.66930001,13.5181 Z" id="形状" fill="#56A8DF"></path>
            </g>
        </g>
    </g>
</svg>